<svg width="40" height="40" viewBox="0 0 40 40" fill="none" xmlns="http://www.w3.org/2000/svg">
<g filter="url(#filter0_d_186_2844)">
<rect x="4" y="3" width="32" height="32" rx="16" fill="white" shape-rendering="crispEdges"/>
<path d="M19.105 12.8297C19.3753 12.6846 19.7037 12.6995 19.9594 12.8688L27.9599 18.1683C28.1877 18.3192 28.3269 18.5722 28.3327 18.8454C28.3378 19.0843 28.24 19.3121 28.0673 19.4728L27.9884 19.5379L19.9888 25.3387C19.7352 25.5225 19.3994 25.5486 19.1204 25.4062C18.8417 25.2639 18.6664 24.9771 18.6663 24.6641V22.3586C17.2632 22.3993 15.9983 23.0441 14.9993 23.7933C14.4225 24.2259 13.9581 24.6752 13.6387 25.0164C13.4797 25.1863 13.3577 25.3281 13.2773 25.425C13.2373 25.4732 13.2074 25.5101 13.1886 25.534C13.1793 25.5459 13.173 25.5551 13.1691 25.5601L13.165 25.5633V25.5649L13.1658 25.5641C12.9506 25.8509 12.5758 25.9681 12.2357 25.8546C11.8954 25.7412 11.666 25.4223 11.666 25.0636H12.4993C11.666 25.0636 11.666 25.0628 11.666 25.0628V25.0302C11.6663 25.0124 11.6674 24.9877 11.6685 24.957C11.6705 24.8957 11.6739 24.8094 11.6815 24.7015C11.6967 24.4856 11.7266 24.1816 11.7856 23.8144C11.9035 23.0823 12.1398 22.0857 12.6149 21.0336C13.5187 19.0324 15.2888 16.8422 18.6663 15.91V13.5638L18.6737 13.4498C18.7097 13.1884 18.8686 12.9568 19.105 12.8297ZM20.333 16.5635C20.333 16.9564 20.058 17.2965 19.6738 17.3789C16.4834 18.0626 14.9227 19.9715 14.1335 21.7189C13.9939 22.0279 13.8789 22.3326 13.7835 22.6246C13.8537 22.5694 13.9257 22.5146 13.9992 22.4595C15.3297 21.4616 17.2965 20.4483 19.603 20.7366C20.0198 20.7888 20.3328 21.1434 20.333 21.5635V23.0299L26.0369 18.8934L20.333 15.1157V16.5635Z" fill="#222222"/>
</g>
<defs>
<filter id="filter0_d_186_2844" x="0" y="0" width="40" height="40" filterUnits="userSpaceOnUse" color-interpolation-filters="sRGB">
<feFlood flood-opacity="0" result="BackgroundImageFix"/>
<feColorMatrix in="SourceAlpha" type="matrix" values="0 0 0 0 0 0 0 0 0 0 0 0 0 0 0 0 0 0 127 0" result="hardAlpha"/>
<feOffset dy="1"/>
<feGaussianBlur stdDeviation="2"/>
<feComposite in2="hardAlpha" operator="out"/>
<feColorMatrix type="matrix" values="0 0 0 0 0 0 0 0 0 0 0 0 0 0 0 0 0 0 0.16 0"/>
<feBlend mode="normal" in2="BackgroundImageFix" result="effect1_dropShadow_186_2844"/>
<feBlend mode="normal" in="SourceGraphic" in2="effect1_dropShadow_186_2844" result="shape"/>
</filter>
</defs>
</svg>
